<svg height='100px' width='100px'  fill="#B30000" xmlns:dc="http://purl.org/dc/elements/1.1/" xmlns:cc="http://creativecommons.org/ns#" xmlns:rdf="http://www.w3.org/1999/02/22-rdf-syntax-ns#" xmlns:svg="http://www.w3.org/2000/svg" xmlns="http://www.w3.org/2000/svg" xmlns:sodipodi="http://sodipodi.sourceforge.net/DTD/sodipodi-0.dtd" xmlns:inkscape="http://www.inkscape.org/namespaces/inkscape" viewBox="0 0 100 100" version="1.1" x="0px" y="0px"><g transform="translate(0,-952.36216)"><path style="color:#000000;clip-rule:nonzero;display:inline;overflow:visible;visibility:visible;opacity:1;isolation:auto;mix-blend-mode:normal;color-interpolation:sRGB;color-interpolation-filters:linearRGB;solid-color:#000000;solid-opacity:1;fill:#B30000;fill-opacity:1;fill-rule:nonzero;stroke:none;stroke-width:10;stroke-linecap:square;stroke-linejoin:miter;stroke-miterlimit:4;stroke-dasharray:none;stroke-dashoffset:0;stroke-opacity:1;color-rendering:auto;image-rendering:auto;shape-rendering:auto;text-rendering:auto;enable-background:accumulate" d="m 51.156246,957.36213 a 8.099702,11.308937 14.354794 0 0 -7.901201,6.12751 8.099702,11.308937 14.354794 0 0 -1.582491,6.55313 11.509223,7.620614 84.825172 0 0 -3.366144,-6.57709 11.508427,4.8668377 84.319239 0 1 -3.759089,10.60197 11.508427,4.8668377 84.319239 0 1 -5.823155,-9.46505 11.509223,7.620614 84.825172 0 0 -1.866893,9.18399 11.509223,7.620614 84.825172 0 0 0.837862,3.77376 11.421202,9.2086323 71.43089 0 0 -3.230251,-2.65818 11.419925,5.8812613 72.479346 0 1 -2.616195,11.2207 11.419925,5.8812613 72.479346 0 1 -8.559896,-7.89384 11.421202,9.2086323 71.43089 0 0 -0.616716,9.39643 11.421202,9.2086323 71.43089 0 0 4.687523,6.72363 11.308937,8.099702 14.354794 0 0 -7.685376,0.53613 7.0981629,5.0838562 14.354794 0 1 4.951328,0.96312 7.0981629,5.0838562 14.354794 0 1 3.111034,7.30436 7.0981629,5.0838562 14.354794 0 1 -9.385754,1.1643 A 7.0981629,5.0838562 14.354794 0 1 5,1001.2072 a 11.308937,8.099702 14.354794 0 0 6.12754,7.9012 11.308937,8.099702 14.354794 0 0 6.551109,1.5825 7.620614,11.509223 84.825172 0 0 -6.575764,3.3648 4.8668377,11.508427 84.319239 0 1 10.602614,3.7598 4.8668377,11.508427 84.319239 0 1 -9.465039,5.8239 7.620614,11.509223 84.825172 0 0 9.183979,1.8668 7.620614,11.509223 84.825172 0 0 3.7744,-0.8398 9.2086323,11.421202 71.43089 0 0 -2.658786,3.2316 5.8812613,11.419925 72.479346 0 1 11.220012,2.6161 5.8812613,11.419925 72.479346 0 1 -7.893835,8.5606 9.2086323,11.421202 71.43089 0 0 9.395745,0.6168 9.2086323,11.421202 71.43089 0 0 6.724274,-4.6869 8.099702,11.308937 14.354794 0 0 0.536852,7.6847 5.0838562,7.0981629 14.354794 0 1 0.96175,-4.9527 5.0838562,7.0981629 14.354794 0 1 7.3044,-3.1097 5.0838562,7.0981629 14.354794 0 1 1.165572,9.3845 5.0838562,7.0981629 14.354794 0 1 -3.110386,3.3508 8.099702,11.308937 14.354794 0 0 7.901167,-6.1269 8.099702,11.308937 14.354794 0 0 1.582491,-6.5491 11.509223,7.620614 84.825172 0 0 3.365495,6.5731 11.508427,4.8668377 84.319239 0 1 3.759089,-10.6013 11.508427,4.8668377 84.319239 0 1 5.824485,9.4644 11.509223,7.620614 84.825172 0 0 1.866211,-9.1833 11.509223,7.620614 84.825172 0 0 -0.839874,-3.7764 11.421202,9.2086323 71.43089 0 0 3.231616,2.6601 11.419925,5.8812613 72.479346 0 1 2.616194,-11.2207 11.419925,5.8812613 72.479346 0 1 8.561192,7.8945 11.421202,9.2086323 71.43089 0 0 0.616103,-9.3957 11.421202,9.2086323 71.43089 0 0 -4.68824,-6.7243 11.308937,8.099702 14.354794 0 0 7.686058,-0.5369 7.0981629,5.0838562 14.354794 0 1 -4.951976,-0.9617 7.0981629,5.0838562 14.354794 0 1 -3.109704,-7.3044 7.0981629,5.0838562 14.354794 0 1 9.384424,-1.1649 7.0981629,5.0838562 14.354794 0 1 3.350832,3.1104 11.308937,8.099702 14.354794 0 0 -6.126858,-7.90122 11.308937,8.099702 14.354794 0 0 -6.553803,-1.58249 7.620614,11.509223 84.825172 0 0 6.577776,-3.36549 4.8668377,11.508427 84.319239 0 1 -10.601284,-3.76042 4.8668377,11.508427 84.319239 0 1 9.463709,-5.82316 7.620614,11.509223 84.825172 0 0 -9.183296,-1.86689 7.620614,11.509223 84.825172 0 0 -3.774435,0.83919 9.2086323,11.421202 71.43089 0 0 2.65882,-3.23093 5.8812613,11.419925 72.479346 0 1 -11.220694,-2.61552 5.8812613,11.419925 72.479346 0 1 7.894517,-8.56123 9.2086323,11.421202 71.43089 0 0 -9.395779,-0.61676 9.2086323,11.421202 71.43089 0 0 -6.724273,4.68691 8.099702,11.308937 14.354794 0 0 -0.5375,-7.68404 5.0838562,7.0981629 14.354794 0 1 -0.961751,4.95129 5.0838562,7.0981629 14.354794 0 1 -7.304399,3.11107 5.0838562,7.0981629 14.354794 0 1 -1.16489,-9.38579 5.0838562,7.0981629 14.354794 0 1 3.110386,-3.35148 z m -1.84691,18.08487 a 6.7640785,4.8445773 75.645206 0 1 4.725511,3.66453 6.7640785,4.8445773 75.645206 0 1 0.946439,3.91763 4.5580263,6.8838732 5.174828 0 1 2.012743,-3.93161 2.9109431,6.8833968 5.680761 0 0 2.248552,6.34064 2.9109431,6.8833968 5.680761 0 0 3.483348,-5.66063 4.5580263,6.8838732 5.174828 0 1 1.116262,5.49278 4.5580263,6.8838732 5.174828 0 1 -0.502171,2.25855 5.5078485,6.8312257 18.56911 0 1 1.933493,-1.59116 3.517688,6.8304622 17.520654 0 0 1.564519,6.71163 3.517688,6.8304622 17.520654 0 0 5.12047,-4.72221 5.5078485,6.8312257 18.56911 0 1 0.368324,5.62002 5.5078485,6.8312257 18.56911 0 1 -2.804022,4.02218 4.8445773,6.7640785 75.645206 0 1 4.597667,0.32102 3.0407457,4.2455387 75.645206 0 0 -2.962524,0.57481 3.0407457,4.2455387 75.645206 0 0 -1.860244,4.36922 3.0407457,4.2455387 75.645206 0 0 5.613331,0.6967 3.0407457,4.2455387 75.645206 0 0 2.004764,-1.8603 4.8445773,6.7640785 75.645206 0 1 -3.665176,4.7255 4.8445773,6.7640785 75.645206 0 1 -3.919636,0.9465 6.8838732,4.5580263 5.174828 0 1 3.9343,2.0134 6.8833968,2.9109431 5.680761 0 0 -6.341353,2.2492 6.8833968,2.9109431 5.680761 0 0 5.660663,3.4827 6.8838732,4.5580263 5.174828 0 1 -5.492136,1.117 6.8838732,4.5580263 5.174828 0 1 -2.257861,-0.5022 6.8312257,5.5078485 18.56911 0 1 1.589822,1.9321 6.8304622,3.517688 17.520654 0 0 -6.710973,1.5645 6.8304622,3.517688 17.520654 0 0 4.722203,5.1205 6.8312257,5.5078485 18.56911 0 1 -5.620662,0.369 6.8312257,5.5078485 18.56911 0 1 -4.021531,-2.8033 6.7640785,4.8445773 75.645206 0 1 -0.321027,4.5963 4.2455387,3.0407457 75.645206 0 0 -0.575454,-2.9619 4.2455387,3.0407457 75.645206 0 0 -4.36919,-1.8602 4.2455387,3.0407457 75.645206 0 0 -0.696684,5.614 4.2455387,3.0407457 75.645206 0 0 1.860892,2.0041 6.7640785,4.8445773 75.645206 0 1 -4.72616,-3.6645 6.7640785,4.8445773 75.645206 0 1 -0.946439,-3.9203 4.5580263,6.8838732 5.174828 0 1 -2.013425,3.9342 2.9109431,6.8833968 5.680761 0 0 -2.248552,-6.3413 2.9109431,6.8833968 5.680761 0 0 -3.4827,5.6613 4.5580263,6.8838732 5.174828 0 1 -1.116945,-5.4934 4.5580263,6.8838732 5.174828 0 1 0.501524,-2.2572 5.5078485,6.8312257 18.56911 0 1 -1.932163,1.5905 3.517688,6.8304622 17.520654 0 0 -1.565167,-6.7117 3.517688,6.8304622 17.520654 0 0 -5.119822,4.7216 5.5078485,6.8312257 18.56911 0 1 -0.368324,-5.6201 5.5078485,6.8312257 18.56911 0 1 2.80334,-4.0215 4.8445773,6.7640785 75.645206 0 1 -4.596303,-0.321 3.0407457,4.2455387 75.645206 0 0 2.961195,-0.5755 3.0407457,4.2455387 75.645206 0 0 1.860925,-4.3692 3.0407457,4.2455387 75.645206 0 0 -5.614013,-0.6966 3.0407457,4.2455387 75.645206 0 0 -2.004116,1.8602 4.8445773,6.7640785 75.645206 0 1 3.664528,-4.7262 4.8445773,6.7640785 75.645206 0 1 3.918954,-0.94576 6.8838732,4.5580263 5.174828 0 1 -3.933618,-2.01342 6.8833968,2.9109431 5.680761 0 0 6.342001,-2.24855 6.8833968,2.9109431 5.680761 0 0 -5.661311,-3.48335 6.8838732,4.5580263 5.174828 0 1 5.493466,-1.11695 6.8838732,4.5580263 5.174828 0 1 2.257179,0.50286 6.8312257,5.5078485 18.56911 0 1 -1.59047,-1.93285 6.8304622,3.517688 17.520654 0 0 6.710974,-1.56452 6.8304622,3.517688 17.520654 0 0 -4.721522,-5.12047 6.8312257,5.5078485 18.56911 0 1 5.619981,-0.36897 6.8312257,5.5078485 18.56911 0 1 4.02153,2.80334 6.7640785,4.8445773 75.645206 0 1 0.321027,-4.5963 4.2455387,3.0407457 75.645206 0 0 0.575454,2.96184 4.2455387,3.0407457 75.645206 0 0 4.369191,1.86024 4.2455387,3.0407457 75.645206 0 0 0.696683,-5.61336 4.2455387,3.0407457 75.645206 0 0 -1.859561,-2.00408 z"></path></g></svg>